<svg width="48" height="48" viewBox="0 0 48 48" fill="none" xmlns="http://www.w3.org/2000/svg">
<path d="M22.2908 23.7085C22.2908 23.7085 24.7029 23.5252 24.7029 20.6389C24.7029 17.7551 23.0669 16.3335 20.5663 16.3335L12 16.3199V32.2573H20.7656C20.7656 32.2573 25.1483 32.3959 25.1483 27.4761C25.1483 27.4761 25.4703 23.7085 22.2908 23.7085ZM15.1875 18.7105H19.5703C19.5703 18.7105 21.07 18.7352 21.07 20.6796C21.07 22.6949 19.5703 22.6949 19.5703 22.6949H15.1875V18.7105ZM19.9687 29.8667H15.1875V25.0855H19.9687C19.9687 25.0855 22.3593 25.1102 22.3593 27.4761C22.3593 29.842 20.3129 29.8667 19.9687 29.8667Z" fill="white"/>
<path d="M31.922 20.3046C25.9351 20.3046 25.9455 26.2811 25.9455 26.2811C25.9455 26.2811 25.547 32.2577 31.922 32.2577C31.922 32.2577 37.5001 32.2577 37.5001 27.4764H34.3126C34.3126 27.4764 34.3126 29.8671 31.922 29.8671C31.922 29.8671 29.5314 29.8671 29.5314 26.6796C29.5314 26.6796 35.9063 26.6796 37.5001 26.6796C37.5001 25.0858 37.5001 20.3046 31.922 20.3046ZM29.5314 25.0858C29.5314 25.0858 29.4788 22.6952 31.922 22.6952C34.3644 22.6952 34.3126 25.0858 34.3126 25.0858H29.5314Z" fill="white"/>
<path d="M35.1097 17.9138H28.7347V19.5075H35.1097V17.9138Z" fill="white"/>
</svg>
