<svg width="51" height="48" viewBox="0 0 51 48" fill="none" xmlns="http://www.w3.org/2000/svg">
<path d="M25.7925 11.8041C32.3667 11.8041 37.6859 17.1295 37.6859 23.7015C37.6859 30.2734 32.3667 35.6088 25.7925 35.6088C19.2183 35.6088 13.8992 30.2834 13.8992 23.7115C13.8992 17.1395 19.2183 11.8041 25.7925 11.8041Z" fill="#E74D89"/>
<path d="M25.7935 36.4565C18.761 36.4565 13.0435 30.7422 13.0435 23.7115C13.0435 16.6709 18.761 10.9565 25.7935 10.9565C32.8259 10.9565 38.5435 16.6709 38.5435 23.7016C38.5435 30.7323 32.8259 36.4565 25.7935 36.4565ZM36.5413 25.4468C36.1728 25.3271 33.1745 24.4395 29.7579 24.9781C31.1823 28.8873 31.7601 32.0786 31.8696 32.7368C34.32 31.0913 36.0632 28.4784 36.5413 25.4468ZM30.0468 33.744C29.8874 32.7866 29.2499 29.4558 27.7259 25.4867C27.706 25.4966 27.6761 25.5066 27.6562 25.5066C21.5103 27.6507 19.3089 31.909 19.1097 32.3079C20.9524 33.744 23.2733 34.6016 25.7935 34.6016C27.2976 34.6116 28.7419 34.3025 30.0468 33.744ZM17.7052 31.0015C17.9542 30.5827 20.9425 25.6362 26.5604 23.8113C26.6999 23.7614 26.8493 23.7215 26.9888 23.6816C26.7198 23.0633 26.421 22.445 26.1022 21.8367C20.6636 23.4622 15.3843 23.3924 14.9062 23.3824C14.9062 23.4921 14.8962 23.6018 14.8962 23.7115C14.9062 26.5138 15.962 29.0668 17.7052 31.0015ZM15.1353 21.4876C15.6233 21.4976 20.1058 21.5176 25.2058 20.1613C23.4028 16.9501 21.4505 14.2575 21.1716 13.8685C18.1136 15.3046 15.8425 18.1169 15.1353 21.4876ZM23.2435 13.1306C23.5423 13.5295 25.5245 16.2221 27.3075 19.5031C31.1823 18.0471 32.8159 15.8531 33.0151 15.5739C31.0927 13.8685 28.5626 12.8314 25.7935 12.8314C24.9169 12.8314 24.0603 12.9411 23.2435 13.1306ZM34.2204 16.8304C33.9913 17.1396 32.1685 19.4831 28.1442 21.1286C28.3933 21.6472 28.6423 22.1757 28.8714 22.7043C28.9511 22.8938 29.0308 23.0833 29.1104 23.2628C32.7362 22.804 36.3321 23.542 36.6907 23.6118C36.6608 21.0488 35.7444 18.6853 34.2204 16.8304Z" fill="#B2215A"/>
</svg>
