<svg width="48" height="48" viewBox="0 0 48 48" fill="none" xmlns="http://www.w3.org/2000/svg">
<path fill-rule="evenodd" clip-rule="evenodd" d="M23.2349 11.0089C16.1905 11.0089 10.4849 16.8589 10.4849 24.0814C10.4849 29.866 14.1346 34.7519 19.2027 36.484C19.8402 36.5984 20.0792 36.2062 20.0792 35.863C20.0792 35.5526 20.0633 34.5231 20.0633 33.4283C16.8599 34.0329 16.0311 32.6276 15.7761 31.8923C15.6327 31.5164 15.0111 30.3562 14.4692 30.0458C14.023 29.8007 13.3855 29.1961 14.4533 29.1797C15.4574 29.1634 16.1746 30.1275 16.4136 30.5196C17.5611 32.4969 19.3939 31.9413 20.1271 31.5981C20.2386 30.7484 20.5733 30.1765 20.9399 29.8497C18.103 29.5229 15.1386 28.3954 15.1386 23.3951C15.1386 21.9735 15.6327 20.797 16.4455 19.8819C16.318 19.5551 15.8717 18.2152 16.573 16.4177C16.573 16.4177 17.6408 16.0745 20.0792 17.7576C21.0992 17.4635 22.183 17.3164 23.2667 17.3164C24.3505 17.3164 25.4342 17.4635 26.4542 17.7576C28.8927 16.0582 29.9605 16.4177 29.9605 16.4177C30.6617 18.2152 30.2155 19.5551 30.088 19.8819C30.9008 20.797 31.3949 21.9572 31.3949 23.3951C31.3949 28.4117 28.4146 29.5229 25.5777 29.8497C26.0399 30.2582 26.4383 31.0425 26.4383 32.2681C26.4383 34.0165 26.4224 35.4218 26.4224 35.863C26.4224 36.2062 26.6614 36.6147 27.2989 36.484C32.3352 34.7519 35.9849 29.8497 35.9849 24.0814C35.9849 16.8589 30.2792 11.0089 23.2349 11.0089Z" fill="white"/>
</svg>
