<svg width="48" height="48" viewBox="0 0 48 48" fill="none" xmlns="http://www.w3.org/2000/svg">
<path d="M11.009 12.8877C11.009 11.8507 11.8772 11.0089 12.9474 11.0089H35.2982C36.3688 11.0089 37.2366 11.8507 37.2366 12.8877V35.358C37.2366 36.3953 36.3688 37.2365 35.2982 37.2365H12.9474C11.8773 37.2365 11.009 36.3954 11.009 35.3583V12.8874V12.8877Z" fill="#006699"/>
<path d="M18.9792 32.958V21.1503H15.0545V32.958H18.9796H18.9792ZM17.0176 19.5385C18.386 19.5385 19.2378 18.6318 19.2378 17.4987C19.2122 16.3397 18.386 15.4583 17.0436 15.4583C15.7004 15.4583 14.8231 16.3397 14.8231 17.4986C14.8231 18.6317 15.6747 19.5384 16.9919 19.5384H17.0173L17.0176 19.5385ZM21.1515 32.958H25.0759V26.3648C25.0759 26.0124 25.1015 25.659 25.2052 25.4073C25.4888 24.7019 26.1346 23.9717 27.219 23.9717C28.6388 23.9717 29.2071 25.0544 29.2071 26.6419V32.958H33.1314V26.1879C33.1314 22.5612 31.1955 20.8735 28.6134 20.8735C26.4964 20.8735 25.5667 22.0567 25.0501 22.8626H25.0762V21.1507H21.1517C21.203 22.2584 21.1514 32.9585 21.1514 32.9585L21.1515 32.958Z" fill="white"/>
</svg>
